<svg width="31" height="31" viewBox="0 0 31 31" fill="none" xmlns="http://www.w3.org/2000/svg">
<path d="M23.9976 13.536C23.9976 19.4127 19.2666 24.1553 13.457 24.1553C7.64745 24.1553 2.9165 19.4127 2.9165 13.536C2.9165 7.65929 7.64745 2.91669 13.457 2.91669C19.2666 2.91669 23.9976 7.65929 23.9976 13.536Z" stroke="white" stroke-width="4"/>
<path opacity="0.4" d="M28.1501 30.0181C27.663 30.0023 27.1997 29.8019 26.8533 29.457L23.8835 25.9857C23.2468 25.4034 23.1947 24.4138 23.7668 23.7672C24.0345 23.4962 24.3986 23.3439 24.7783 23.3439C25.158 23.3439 25.5221 23.4962 25.7898 23.7672L29.5248 26.7556C30.0628 27.3063 30.2288 28.1237 29.9486 28.8426C29.6685 29.5615 28.9945 30.0475 28.2279 30.0834L28.1501 30.0181Z" fill="white"/>
</svg>
